# Blender 4.0.2
# www.blender.org
mtllib slash.mtl
o SlashCurve
v -0.116728 0.000000 0.016978
v -0.143534 0.018320 0.009706
v -0.197686 0.032894 -0.004985
v -0.239788 0.038837 -0.016407
v -0.281890 0.031464 -0.027829
v -0.336042 0.015460 -0.042521
v -0.362848 0.000000 -0.049793
v -0.128646 0.000000 0.050133
v -0.154972 0.017378 0.049106
v -0.208155 0.031202 0.047030
v -0.249503 0.036840 0.045417
v -0.290852 0.029845 0.043803
v -0.344035 0.014664 0.041727
v -0.370360 0.000000 0.040700
v -0.132889 0.000000 0.080003
v -0.157321 0.016436 0.084895
v -0.206679 0.029510 0.094778
v -0.245053 0.034842 0.102462
v -0.283428 0.028227 0.110146
v -0.332785 0.013869 0.120029
v -0.357217 0.000000 0.124921
v -0.130240 0.000000 0.108768
v -0.151560 0.015493 0.118626
v -0.194629 0.027818 0.138542
v -0.228115 0.032844 0.154026
v -0.261600 0.026609 0.169510
v -0.304670 0.013074 0.189425
v -0.325989 0.000000 0.199284
v -0.120141 0.000000 0.137594
v -0.137616 0.014551 0.151058
v -0.172918 0.026126 0.178258
v -0.200364 0.030847 0.199405
v -0.227811 0.024990 0.220552
v -0.263113 0.012279 0.247751
v -0.280587 0.000000 0.261215
v -0.101911 0.000000 0.165921
v -0.115322 0.013609 0.181598
v -0.142415 0.024434 0.213270
v -0.163479 0.028849 0.237895
v -0.184543 0.023372 0.262519
v -0.211636 0.011484 0.294191
v -0.225047 0.000000 0.309869
v -0.075632 0.000000 0.192119
v -0.085108 0.012666 0.208821
v -0.104252 0.022742 0.242561
v -0.119136 0.026851 0.268793
v -0.134020 0.021753 0.295025
v -0.153164 0.010688 0.328765
v -0.162640 0.000000 0.345466
v -0.042207 0.000000 0.214327
v -0.048046 0.011724 0.231114
v -0.059841 0.021050 0.265028
v -0.069012 0.024854 0.291396
v -0.078182 0.020135 0.317763
v -0.089977 0.009893 0.351677
v -0.095816 0.000000 0.368465
v -0.003030 0.000000 0.230887
v -0.005590 0.010782 0.247031
v -0.010762 0.019358 0.279644
v -0.014783 0.022856 0.305000
v -0.018804 0.018517 0.330356
v -0.023976 0.009098 0.362969
v -0.026536 0.000000 0.379112
v 0.040405 0.000000 0.242258
v 0.040725 0.009578 0.256775
v 0.041371 0.017197 0.286101
v 0.041873 0.020304 0.308902
v 0.042375 0.016449 0.331702
v 0.043021 0.008082 0.361029
v 0.043341 0.000000 0.375545
v 0.087271 0.000000 0.245368
v 0.089887 0.008374 0.257790
v 0.095171 0.015035 0.282886
v 0.099280 0.017752 0.302398
v 0.103389 0.014381 0.321910
v 0.108673 0.007066 0.347006
v 0.111289 0.000000 0.359428
v 0.136278 0.000000 0.238843
v 0.140522 0.007170 0.248851
v 0.149095 0.012874 0.269067
v 0.155760 0.015200 0.284785
v 0.162426 0.012314 0.300503
v 0.170999 0.006050 0.320720
v 0.175243 0.000000 0.330727
v 0.186160 0.000000 0.221111
v 0.191274 0.005966 0.228571
v 0.201605 0.010712 0.243643
v 0.209638 0.012648 0.255360
v 0.217670 0.010246 0.267078
v 0.228001 0.005034 0.282149
v 0.233115 0.000000 0.289610
v 0.235419 0.000000 0.190368
v 0.240607 0.004762 0.195389
v 0.251087 0.008551 0.205533
v 0.259235 0.010096 0.213420
v 0.267383 0.008179 0.221306
v 0.277863 0.004019 0.231450
v 0.283051 0.000000 0.236471
v 0.282091 0.000000 0.144793
v 0.286618 0.003558 0.147727
v 0.295764 0.006389 0.153653
v 0.302875 0.007543 0.158260
v 0.309986 0.006111 0.162867
v 0.319133 0.003003 0.168793
v 0.323660 0.000000 0.171726
v 0.323754 0.000000 0.082878
v 0.327050 0.002355 0.084250
v 0.333707 0.004228 0.087022
v 0.338882 0.004991 0.089177
v 0.344058 0.004044 0.091333
v 0.350715 0.001987 0.094105
v 0.354010 0.000000 0.095477
v 0.357783 0.000000 0.003634
v 0.359481 0.001151 0.004034
v 0.362912 0.002066 0.004841
v 0.365579 0.002439 0.005469
v 0.368245 0.001976 0.006097
v 0.371676 0.000971 0.006904
v 0.373374 0.000000 0.007304
v -0.143534 -0.018320 0.009706
v -0.197686 -0.032894 -0.004985
v -0.239788 -0.038837 -0.016407
v -0.281890 -0.031464 -0.027829
v -0.336042 -0.015460 -0.042521
v -0.154972 -0.017378 0.049106
v -0.208155 -0.031202 0.047030
v -0.249503 -0.036840 0.045417
v -0.290852 -0.029845 0.043803
v -0.344035 -0.014664 0.041727
v -0.157321 -0.016436 0.084895
v -0.206679 -0.029510 0.094778
v -0.245053 -0.034842 0.102462
v -0.283428 -0.028227 0.110146
v -0.332785 -0.013869 0.120029
v -0.151560 -0.015493 0.118626
v -0.194629 -0.027818 0.138542
v -0.228115 -0.032844 0.154026
v -0.261600 -0.026609 0.169510
v -0.304670 -0.013074 0.189425
v -0.137616 -0.014551 0.151058
v -0.172918 -0.026126 0.178258
v -0.200364 -0.030847 0.199405
v -0.227811 -0.024990 0.220552
v -0.263113 -0.012279 0.247751
v -0.115322 -0.013609 0.181598
v -0.142415 -0.024434 0.213270
v -0.163479 -0.028849 0.237895
v -0.184543 -0.023372 0.262519
v -0.211636 -0.011484 0.294191
v -0.085108 -0.012666 0.208821
v -0.104252 -0.022742 0.242561
v -0.119136 -0.026851 0.268793
v -0.134020 -0.021753 0.295025
v -0.153164 -0.010688 0.328765
v -0.048046 -0.011724 0.231114
v -0.059841 -0.021050 0.265028
v -0.069012 -0.024854 0.291396
v -0.078182 -0.020135 0.317763
v -0.089977 -0.009893 0.351677
v -0.005590 -0.010782 0.247031
v -0.010762 -0.019358 0.279644
v -0.014783 -0.022856 0.305000
v -0.018804 -0.018517 0.330356
v -0.023976 -0.009098 0.362969
v 0.040725 -0.009578 0.256775
v 0.041371 -0.017197 0.286101
v 0.041873 -0.020304 0.308902
v 0.042375 -0.016449 0.331702
v 0.043021 -0.008082 0.361029
v 0.089887 -0.008374 0.257790
v 0.095171 -0.015035 0.282886
v 0.099280 -0.017752 0.302398
v 0.103389 -0.014381 0.321910
v 0.108673 -0.007066 0.347006
v 0.140522 -0.007170 0.248851
v 0.149095 -0.012874 0.269067
v 0.155760 -0.015200 0.284785
v 0.162426 -0.012314 0.300503
v 0.170999 -0.006050 0.320720
v 0.191274 -0.005966 0.228571
v 0.201605 -0.010712 0.243643
v 0.209638 -0.012648 0.255360
v 0.217670 -0.010246 0.267078
v 0.228001 -0.005034 0.282149
v 0.240607 -0.004762 0.195389
v 0.251087 -0.008551 0.205533
v 0.259235 -0.010096 0.213420
v 0.267383 -0.008179 0.221306
v 0.277863 -0.004019 0.231450
v 0.286618 -0.003558 0.147727
v 0.295764 -0.006389 0.153653
v 0.302875 -0.007543 0.158260
v 0.309986 -0.006111 0.162867
v 0.319133 -0.003003 0.168793
v 0.327050 -0.002355 0.084250
v 0.333707 -0.004228 0.087022
v 0.338882 -0.004991 0.089177
v 0.344058 -0.004044 0.091333
v 0.350715 -0.001987 0.094105
v 0.359481 -0.001151 0.004034
v 0.362912 -0.002066 0.004841
v 0.365579 -0.002439 0.005469
v 0.368245 -0.001976 0.006097
v 0.371676 -0.000971 0.006904
vn 0.4725 0.6826 -0.5575
vn 0.3928 0.9152 0.0905
vn 0.9723 -0.0000 0.2338
vn 0.9561 -0.0000 -0.2930
vn 0.3168 0.7127 -0.6259
vn 0.1876 0.9810 0.0496
vn 0.1567 0.7494 -0.6433
vn -0.0284 0.9991 0.0321
vn 0.0186 0.7188 -0.6950
vn -0.2255 0.9740 0.0208
vn -0.1136 0.6965 -0.7085
vn -0.3908 0.9203 0.0189
vn -0.7138 -0.0000 -0.7003
vn -0.9994 -0.0000 0.0333
vn 0.4028 0.9153 0.0022
vn 0.9998 -0.0000 0.0176
vn 0.1942 0.9809 0.0075
vn -0.0200 0.9990 0.0403
vn -0.2141 0.9739 0.0750
vn -0.3754 0.9201 0.1118
vn -0.9629 -0.0000 0.2700
vn 0.3917 0.9155 -0.0917
vn 0.9761 -0.0000 -0.2172
vn 0.1909 0.9809 -0.0370
vn -0.0093 0.9989 0.0449
vn -0.1902 0.9739 0.1241
vn -0.3382 0.9201 0.1977
vn -0.8716 -0.0000 0.4902
vn 0.3597 0.9156 -0.1797
vn 0.8977 -0.0000 -0.4406
vn 0.1777 0.9809 -0.0790
vn 0.0016 0.9990 0.0457
vn -0.1573 0.9739 0.1636
vn -0.2848 0.9202 0.2685
vn -0.7389 -0.0000 0.6738
vn 0.3121 0.9155 -0.2537
vn 0.7780 -0.0000 -0.6283
vn 0.1568 0.9809 -0.1150
vn 0.0113 0.9990 0.0436
vn -0.1199 0.9739 0.1925
vn -0.2225 0.9204 0.3215
vn -0.5823 -0.0000 0.8130
vn 0.2548 0.9155 -0.3114
vn 0.6336 -0.0000 -0.7737
vn 0.1309 0.9809 -0.1438
vn 0.0193 0.9990 0.0398
vn -0.0809 0.9740 0.2116
vn -0.1564 0.9206 0.3579
vn -0.4146 -0.0000 0.9100
vn 0.1916 0.9154 -0.3539
vn 0.4749 -0.0000 -0.8801
vn 0.1016 0.9809 -0.1657
vn 0.0257 0.9991 0.0351
vn -0.0414 0.9740 0.2226
vn -0.0888 0.9207 0.3801
vn -0.2422 -0.0000 0.9702
vn 0.1323 0.9142 -0.3829
vn 0.3228 -0.0000 -0.9465
vn 0.0752 0.9806 -0.1810
vn 0.0358 0.9989 0.0302
vn 0.0030 0.9739 0.2268
vn -0.0145 0.9204 0.3908
vn -0.0548 -0.0000 0.9985
vn 0.0674 0.9148 -0.3982
vn 0.1641 -0.0000 -0.9865
vn 0.0460 0.9806 -0.1908
vn 0.0448 0.9987 0.0240
vn 0.0478 0.9737 0.2228
vn 0.0611 0.9201 0.3868
vn 0.1374 -0.0000 0.9905
vn -0.0102 0.9152 -0.4029
vn -0.0285 -0.0000 -0.9996
vn 0.0086 0.9807 -0.1955
vn 0.0477 0.9987 0.0159
vn 0.0876 0.9737 0.2105
vn 0.1312 0.9200 0.3692
vn 0.3172 -0.0000 0.9484
vn -0.0909 0.9157 -0.3914
vn -0.2296 -0.0000 -0.9733
vn -0.0309 0.9808 -0.1925
vn 0.0488 0.9988 0.0074
vn 0.1257 0.9737 0.1902
vn 0.1993 0.9199 0.3376
vn 0.4923 -0.0000 0.8704
vn -0.1707 0.9162 -0.3625
vn -0.4295 -0.0000 -0.9031
vn -0.0706 0.9810 -0.1808
vn 0.0479 0.9988 -0.0011
vn 0.1598 0.9737 0.1625
vn 0.2614 0.9199 0.2923
vn 0.6532 -0.0000 0.7572
vn -0.2437 0.9166 -0.3170
vn -0.6130 -0.0000 -0.7901
vn -0.1075 0.9812 -0.1606
vn 0.0450 0.9990 -0.0087
vn 0.1876 0.9737 0.1290
vn 0.3130 0.9200 0.2360
vn 0.7884 -0.0000 0.6152
vn -0.3042 0.9168 -0.2589
vn -0.7647 -0.0000 -0.6444
vn -0.1387 0.9813 -0.1335
vn 0.0404 0.9991 -0.0147
vn 0.2075 0.9738 0.0928
vn 0.3509 0.9202 0.1737
vn 0.8895 -0.0000 0.4568
vn -0.3489 0.9167 -0.1946
vn -0.8759 -0.0000 -0.4826
vn -0.1622 0.9814 -0.1028
vn 0.0351 0.9992 -0.0187
vn 0.2194 0.9740 0.0571
vn 0.3746 0.9205 0.1115
vn 0.9548 -0.0000 0.2972
vn -0.1116 0.6590 -0.7438
vn -0.6168 -0.0000 -0.7871
vn 0.0348 0.6918 -0.7213
vn 0.1758 0.7287 -0.6619
vn 0.3173 0.6963 -0.6438
vn 0.4314 0.6715 -0.6025
vn 0.9364 -0.0000 -0.3509
vn 0.4725 -0.6826 -0.5575
vn 0.3928 -0.9152 0.0905
vn 0.3168 -0.7127 -0.6259
vn 0.1876 -0.9810 0.0496
vn 0.1567 -0.7494 -0.6433
vn -0.0284 -0.9991 0.0321
vn 0.0186 -0.7188 -0.6950
vn -0.2255 -0.9740 0.0208
vn -0.1136 -0.6965 -0.7085
vn -0.3908 -0.9203 0.0189
vn 0.4028 -0.9153 0.0022
vn 0.1942 -0.9809 0.0075
vn -0.0200 -0.9990 0.0403
vn -0.2141 -0.9739 0.0750
vn -0.3754 -0.9201 0.1118
vn 0.3917 -0.9155 -0.0917
vn 0.1909 -0.9809 -0.0370
vn -0.0093 -0.9989 0.0449
vn -0.1902 -0.9739 0.1241
vn -0.3382 -0.9201 0.1977
vn 0.3597 -0.9156 -0.1797
vn 0.1777 -0.9809 -0.0790
vn 0.0016 -0.9990 0.0457
vn -0.1573 -0.9739 0.1636
vn -0.2848 -0.9202 0.2685
vn 0.3121 -0.9155 -0.2537
vn 0.1568 -0.9809 -0.1150
vn 0.0113 -0.9990 0.0436
vn -0.1199 -0.9739 0.1925
vn -0.2225 -0.9204 0.3215
vn 0.2548 -0.9155 -0.3114
vn 0.1309 -0.9809 -0.1438
vn 0.0193 -0.9990 0.0398
vn -0.0809 -0.9740 0.2116
vn -0.1564 -0.9206 0.3579
vn 0.1916 -0.9154 -0.3539
vn 0.1016 -0.9809 -0.1657
vn 0.0257 -0.9991 0.0351
vn -0.0414 -0.9740 0.2226
vn -0.0888 -0.9207 0.3801
vn 0.1323 -0.9142 -0.3829
vn 0.0752 -0.9806 -0.1810
vn 0.0358 -0.9989 0.0302
vn 0.0030 -0.9739 0.2268
vn -0.0145 -0.9204 0.3908
vn 0.0674 -0.9148 -0.3982
vn 0.0460 -0.9806 -0.1908
vn 0.0448 -0.9987 0.0240
vn 0.0478 -0.9737 0.2228
vn 0.0611 -0.9201 0.3868
vn -0.0102 -0.9152 -0.4029
vn 0.0086 -0.9807 -0.1955
vn 0.0477 -0.9987 0.0159
vn 0.0876 -0.9737 0.2105
vn 0.1312 -0.9200 0.3692
vn -0.0909 -0.9157 -0.3914
vn -0.0309 -0.9808 -0.1925
vn 0.0488 -0.9988 0.0074
vn 0.1257 -0.9737 0.1902
vn 0.1993 -0.9199 0.3376
vn -0.1707 -0.9162 -0.3625
vn -0.0706 -0.9810 -0.1808
vn 0.0479 -0.9989 -0.0011
vn 0.1598 -0.9737 0.1625
vn 0.2614 -0.9199 0.2923
vn -0.2437 -0.9166 -0.3170
vn -0.1075 -0.9812 -0.1606
vn 0.0450 -0.9990 -0.0087
vn 0.1876 -0.9737 0.1290
vn 0.3130 -0.9200 0.2360
vn -0.3042 -0.9168 -0.2589
vn -0.1387 -0.9813 -0.1335
vn 0.0404 -0.9991 -0.0147
vn 0.2075 -0.9738 0.0928
vn 0.3509 -0.9202 0.1737
vn -0.3489 -0.9167 -0.1946
vn -0.1622 -0.9814 -0.1028
vn 0.0351 -0.9992 -0.0187
vn 0.2194 -0.9740 0.0571
vn 0.3746 -0.9205 0.1115
vn -0.1116 -0.6590 -0.7438
vn 0.0348 -0.6918 -0.7213
vn 0.1758 -0.7287 -0.6619
vn 0.3173 -0.6963 -0.6438
vn 0.4314 -0.6715 -0.6025
vt 0.023298 0.192465
vt 0.083425 0.192465
vt 0.083425 0.034506
vt 0.023298 0.034506
vt 0.023298 0.350424
vt 0.083425 0.350424
vt 0.023298 0.508383
vt 0.083425 0.508383
vt 0.023298 0.666343
vt 0.083425 0.666343
vt 0.023298 0.824302
vt 0.083425 0.824302
vt 0.023298 0.982261
vt 0.083425 0.982261
vt 0.143552 0.192465
vt 0.143552 0.034506
vt 0.143552 0.350424
vt 0.143552 0.508383
vt 0.143552 0.666343
vt 0.143552 0.824302
vt 0.143552 0.982261
vt 0.203679 0.192465
vt 0.203679 0.034506
vt 0.203679 0.350424
vt 0.203679 0.508383
vt 0.203679 0.666343
vt 0.203679 0.824302
vt 0.203679 0.982261
vt 0.263806 0.192465
vt 0.263806 0.034506
vt 0.263806 0.350424
vt 0.263806 0.508383
vt 0.263806 0.666343
vt 0.263806 0.824302
vt 0.263806 0.982261
vt 0.323934 0.192465
vt 0.323934 0.034506
vt 0.323934 0.350424
vt 0.323934 0.508383
vt 0.323934 0.666343
vt 0.323934 0.824302
vt 0.323934 0.982261
vt 0.384061 0.192465
vt 0.384061 0.034506
vt 0.384061 0.350424
vt 0.384061 0.508383
vt 0.384061 0.666343
vt 0.384061 0.824302
vt 0.384061 0.982261
vt 0.444188 0.192465
vt 0.444188 0.034506
vt 0.444188 0.350424
vt 0.444188 0.508383
vt 0.444188 0.666343
vt 0.444188 0.824302
vt 0.444188 0.982261
vt 0.504315 0.192465
vt 0.504315 0.034506
vt 0.504315 0.350424
vt 0.504315 0.508383
vt 0.504315 0.666343
vt 0.504315 0.824302
vt 0.504315 0.982261
vt 0.564442 0.192465
vt 0.564442 0.034506
vt 0.564442 0.350424
vt 0.564442 0.508383
vt 0.564442 0.666343
vt 0.564442 0.824302
vt 0.564442 0.982261
vt 0.624570 0.192465
vt 0.624570 0.034506
vt 0.624570 0.350424
vt 0.624570 0.508383
vt 0.624570 0.666343
vt 0.624570 0.824302
vt 0.624570 0.982261
vt 0.684697 0.192465
vt 0.684697 0.034506
vt 0.684697 0.350424
vt 0.684697 0.508383
vt 0.684697 0.666343
vt 0.684697 0.824302
vt 0.684697 0.982261
vt 0.744824 0.192465
vt 0.744824 0.034506
vt 0.744824 0.350424
vt 0.744824 0.508383
vt 0.744824 0.666343
vt 0.744824 0.824302
vt 0.744824 0.982261
vt 0.804951 0.192465
vt 0.804951 0.034506
vt 0.804951 0.350424
vt 0.804951 0.508383
vt 0.804951 0.666343
vt 0.804951 0.824302
vt 0.804951 0.982261
vt 0.865078 0.192465
vt 0.865078 0.034506
vt 0.865078 0.350424
vt 0.865078 0.508383
vt 0.865078 0.666343
vt 0.865078 0.824302
vt 0.865078 0.982261
vt 0.925205 0.192465
vt 0.925205 0.034506
vt 0.925205 0.350424
vt 0.925205 0.508383
vt 0.925205 0.666343
vt 0.925205 0.824302
vt 0.925205 0.982261
vt 0.985333 0.192465
vt 0.985333 0.034506
vt 0.985333 0.350424
vt 0.985333 0.508383
vt 0.985333 0.666343
vt 0.985333 0.824302
vt 0.985333 0.982261
s 1
f 2/1/1 9/2/2 8/3/3 1/4/4
f 3/5/5 10/6/6 9/2/2 2/1/1
f 4/7/7 11/8/8 10/6/6 3/5/5
f 5/9/9 12/10/10 11/8/8 4/7/7
f 6/11/11 13/12/12 12/10/10 5/9/9
f 7/13/13 14/14/14 13/12/12 6/11/11
f 9/2/2 16/15/15 15/16/16 8/3/3
f 10/6/6 17/17/17 16/15/15 9/2/2
f 11/8/8 18/18/18 17/17/17 10/6/6
f 12/10/10 19/19/19 18/18/18 11/8/8
f 13/12/12 20/20/20 19/19/19 12/10/10
f 14/14/14 21/21/21 20/20/20 13/12/12
f 16/15/15 23/22/22 22/23/23 15/16/16
f 17/17/17 24/24/24 23/22/22 16/15/15
f 18/18/18 25/25/25 24/24/24 17/17/17
f 19/19/19 26/26/26 25/25/25 18/18/18
f 20/20/20 27/27/27 26/26/26 19/19/19
f 21/21/21 28/28/28 27/27/27 20/20/20
f 23/22/22 30/29/29 29/30/30 22/23/23
f 24/24/24 31/31/31 30/29/29 23/22/22
f 25/25/25 32/32/32 31/31/31 24/24/24
f 26/26/26 33/33/33 32/32/32 25/25/25
f 27/27/27 34/34/34 33/33/33 26/26/26
f 28/28/28 35/35/35 34/34/34 27/27/27
f 30/29/29 37/36/36 36/37/37 29/30/30
f 31/31/31 38/38/38 37/36/36 30/29/29
f 32/32/32 39/39/39 38/38/38 31/31/31
f 33/33/33 40/40/40 39/39/39 32/32/32
f 34/34/34 41/41/41 40/40/40 33/33/33
f 35/35/35 42/42/42 41/41/41 34/34/34
f 37/36/36 44/43/43 43/44/44 36/37/37
f 38/38/38 45/45/45 44/43/43 37/36/36
f 39/39/39 46/46/46 45/45/45 38/38/38
f 40/40/40 47/47/47 46/46/46 39/39/39
f 41/41/41 48/48/48 47/47/47 40/40/40
f 42/42/42 49/49/49 48/48/48 41/41/41
f 44/43/43 51/50/50 50/51/51 43/44/44
f 45/45/45 52/52/52 51/50/50 44/43/43
f 46/46/46 53/53/53 52/52/52 45/45/45
f 47/47/47 54/54/54 53/53/53 46/46/46
f 48/48/48 55/55/55 54/54/54 47/47/47
f 49/49/49 56/56/56 55/55/55 48/48/48
f 51/50/50 58/57/57 57/58/58 50/51/51
f 52/52/52 59/59/59 58/57/57 51/50/50
f 53/53/53 60/60/60 59/59/59 52/52/52
f 54/54/54 61/61/61 60/60/60 53/53/53
f 55/55/55 62/62/62 61/61/61 54/54/54
f 56/56/56 63/63/63 62/62/62 55/55/55
f 58/57/57 65/64/64 64/65/65 57/58/58
f 59/59/59 66/66/66 65/64/64 58/57/57
f 60/60/60 67/67/67 66/66/66 59/59/59
f 61/61/61 68/68/68 67/67/67 60/60/60
f 62/62/62 69/69/69 68/68/68 61/61/61
f 63/63/63 70/70/70 69/69/69 62/62/62
f 65/64/64 72/71/71 71/72/72 64/65/65
f 66/66/66 73/73/73 72/71/71 65/64/64
f 67/67/67 74/74/74 73/73/73 66/66/66
f 68/68/68 75/75/75 74/74/74 67/67/67
f 69/69/69 76/76/76 75/75/75 68/68/68
f 70/70/70 77/77/77 76/76/76 69/69/69
f 72/71/71 79/78/78 78/79/79 71/72/72
f 73/73/73 80/80/80 79/78/78 72/71/71
f 74/74/74 81/81/81 80/80/80 73/73/73
f 75/75/75 82/82/82 81/81/81 74/74/74
f 76/76/76 83/83/83 82/82/82 75/75/75
f 77/77/77 84/84/84 83/83/83 76/76/76
f 79/78/78 86/85/85 85/86/86 78/79/79
f 80/80/80 87/87/87 86/85/85 79/78/78
f 81/81/81 88/88/88 87/87/87 80/80/80
f 82/82/82 89/89/89 88/88/88 81/81/81
f 83/83/83 90/90/90 89/89/89 82/82/82
f 84/84/84 91/91/91 90/90/90 83/83/83
f 86/85/85 93/92/92 92/93/93 85/86/86
f 87/87/87 94/94/94 93/92/92 86/85/85
f 88/88/88 95/95/95 94/94/94 87/87/87
f 89/89/89 96/96/96 95/95/95 88/88/88
f 90/90/90 97/97/97 96/96/96 89/89/89
f 91/91/91 98/98/98 97/97/97 90/90/90
f 93/92/92 100/99/99 99/100/100 92/93/93
f 94/94/94 101/101/101 100/99/99 93/92/92
f 95/95/95 102/102/102 101/101/101 94/94/94
f 96/96/96 103/103/103 102/102/102 95/95/95
f 97/97/97 104/104/104 103/103/103 96/96/96
f 98/98/98 105/105/105 104/104/104 97/97/97
f 100/99/99 107/106/106 106/107/107 99/100/100
f 101/101/101 108/108/108 107/106/106 100/99/99
f 102/102/102 109/109/109 108/108/108 101/101/101
f 103/103/103 110/110/110 109/109/109 102/102/102
f 104/104/104 111/111/111 110/110/110 103/103/103
f 105/105/105 112/112/112 111/111/111 104/104/104
f 107/106/106 114/113/113 113/114/114 106/107/107
f 108/108/108 115/115/115 114/113/113 107/106/106
f 109/109/109 116/116/116 115/115/115 108/108/108
f 110/110/110 117/117/117 116/116/116 109/109/109
f 111/111/111 118/118/118 117/117/117 110/110/110
f 112/112/112 119/119/119 118/118/118 111/111/111
f 120/1/120 1/4/4 8/3/3 125/2/121
f 121/5/122 120/1/120 125/2/121 126/6/123
f 122/7/124 121/5/122 126/6/123 127/8/125
f 123/9/126 122/7/124 127/8/125 128/10/127
f 124/11/128 123/9/126 128/10/127 129/12/129
f 7/13/13 124/11/128 129/12/129 14/14/14
f 125/2/121 8/3/3 15/16/16 130/15/130
f 126/6/123 125/2/121 130/15/130 131/17/131
f 127/8/125 126/6/123 131/17/131 132/18/132
f 128/10/127 127/8/125 132/18/132 133/19/133
f 129/12/129 128/10/127 133/19/133 134/20/134
f 14/14/14 129/12/129 134/20/134 21/21/21
f 130/15/130 15/16/16 22/23/23 135/22/135
f 131/17/131 130/15/130 135/22/135 136/24/136
f 132/18/132 131/17/131 136/24/136 137/25/137
f 133/19/133 132/18/132 137/25/137 138/26/138
f 134/20/134 133/19/133 138/26/138 139/27/139
f 21/21/21 134/20/134 139/27/139 28/28/28
f 135/22/135 22/23/23 29/30/30 140/29/140
f 136/24/136 135/22/135 140/29/140 141/31/141
f 137/25/137 136/24/136 141/31/141 142/32/142
f 138/26/138 137/25/137 142/32/142 143/33/143
f 139/27/139 138/26/138 143/33/143 144/34/144
f 28/28/28 139/27/139 144/34/144 35/35/35
f 140/29/140 29/30/30 36/37/37 145/36/145
f 141/31/141 140/29/140 145/36/145 146/38/146
f 142/32/142 141/31/141 146/38/146 147/39/147
f 143/33/143 142/32/142 147/39/147 148/40/148
f 144/34/144 143/33/143 148/40/148 149/41/149
f 35/35/35 144/34/144 149/41/149 42/42/42
f 145/36/145 36/37/37 43/44/44 150/43/150
f 146/38/146 145/36/145 150/43/150 151/45/151
f 147/39/147 146/38/146 151/45/151 152/46/152
f 148/40/148 147/39/147 152/46/152 153/47/153
f 149/41/149 148/40/148 153/47/153 154/48/154
f 42/42/42 149/41/149 154/48/154 49/49/49
f 150/43/150 43/44/44 50/51/51 155/50/155
f 151/45/151 150/43/150 155/50/155 156/52/156
f 152/46/152 151/45/151 156/52/156 157/53/157
f 153/47/153 152/46/152 157/53/157 158/54/158
f 154/48/154 153/47/153 158/54/158 159/55/159
f 49/49/49 154/48/154 159/55/159 56/56/56
f 155/50/155 50/51/51 57/58/58 160/57/160
f 156/52/156 155/50/155 160/57/160 161/59/161
f 157/53/157 156/52/156 161/59/161 162/60/162
f 158/54/158 157/53/157 162/60/162 163/61/163
f 159/55/159 158/54/158 163/61/163 164/62/164
f 56/56/56 159/55/159 164/62/164 63/63/63
f 160/57/160 57/58/58 64/65/65 165/64/165
f 161/59/161 160/57/160 165/64/165 166/66/166
f 162/60/162 161/59/161 166/66/166 167/67/167
f 163/61/163 162/60/162 167/67/167 168/68/168
f 164/62/164 163/61/163 168/68/168 169/69/169
f 63/63/63 164/62/164 169/69/169 70/70/70
f 165/64/165 64/65/65 71/72/72 170/71/170
f 166/66/166 165/64/165 170/71/170 171/73/171
f 167/67/167 166/66/166 171/73/171 172/74/172
f 168/68/168 167/67/167 172/74/172 173/75/173
f 169/69/169 168/68/168 173/75/173 174/76/174
f 70/70/70 169/69/169 174/76/174 77/77/77
f 170/71/170 71/72/72 78/79/79 175/78/175
f 171/73/171 170/71/170 175/78/175 176/80/176
f 172/74/172 171/73/171 176/80/176 177/81/177
f 173/75/173 172/74/172 177/81/177 178/82/178
f 174/76/174 173/75/173 178/82/178 179/83/179
f 77/77/77 174/76/174 179/83/179 84/84/84
f 175/78/175 78/79/79 85/86/86 180/85/180
f 176/80/176 175/78/175 180/85/180 181/87/181
f 177/81/177 176/80/176 181/87/181 182/88/182
f 178/82/178 177/81/177 182/88/182 183/89/183
f 179/83/179 178/82/178 183/89/183 184/90/184
f 84/84/84 179/83/179 184/90/184 91/91/91
f 180/85/180 85/86/86 92/93/93 185/92/185
f 181/87/181 180/85/180 185/92/185 186/94/186
f 182/88/182 181/87/181 186/94/186 187/95/187
f 183/89/183 182/88/182 187/95/187 188/96/188
f 184/90/184 183/89/183 188/96/188 189/97/189
f 91/91/91 184/90/184 189/97/189 98/98/98
f 185/92/185 92/93/93 99/100/100 190/99/190
f 186/94/186 185/92/185 190/99/190 191/101/191
f 187/95/187 186/94/186 191/101/191 192/102/192
f 188/96/188 187/95/187 192/102/192 193/103/193
f 189/97/189 188/96/188 193/103/193 194/104/194
f 98/98/98 189/97/189 194/104/194 105/105/105
f 190/99/190 99/100/100 106/107/107 195/106/195
f 191/101/191 190/99/190 195/106/195 196/108/196
f 192/102/192 191/101/191 196/108/196 197/109/197
f 193/103/193 192/102/192 197/109/197 198/110/198
f 194/104/194 193/103/193 198/110/198 199/111/199
f 105/105/105 194/104/194 199/111/199 112/112/112
f 195/106/195 106/107/107 113/114/114 200/113/200
f 196/108/196 195/106/195 200/113/200 201/115/201
f 197/109/197 196/108/196 201/115/201 202/116/202
f 198/110/198 197/109/197 202/116/202 203/117/203
f 199/111/199 198/110/198 203/117/203 204/118/204
f 112/112/112 199/111/199 204/118/204 119/119/119
f 114/113/113 115/115/115 116/116/116 117/117/117 118/118/118 119/119/119 204/118/204 203/117/203 202/116/202 201/115/201 200/113/200 113/114/114
f 2/1/1 1/4/4 120/1/120 121/5/122 122/7/124 123/9/126 124/11/128 7/13/13 6/11/11 5/9/9 4/7/7 3/5/5
